<?xml version="1.0" encoding="UTF-8"?>
<svg width="20px" height="20px" viewBox="0 0 20 20" version="1.1" xmlns="http://www.w3.org/2000/svg" xmlns:xlink="http://www.w3.org/1999/xlink">
    <title>instagram</title>
    <g id="UI---Home" stroke="none" stroke-width="1" fill="none" fill-rule="evenodd">
        <g id="UI---Home-Final" transform="translate(-1218.000000, -5119.000000)" fill="#BBC7D1" fill-rule="nonzero">
            <g id="Footer" transform="translate(0.000000, 4505.000000)">
                <g id="Group" transform="translate(1194.000000, 612.000000)">
                    <g id="instagram" transform="translate(24.000000, 2.000000)">
                        <path d="M19.9283204,5.88007264 C19.882009,4.81739235 19.7121503,4.08680919 19.4688269,3.45374908 C19.2178101,2.78177129 18.8316305,2.18015047 18.3256748,1.68002075 C17.8313346,1.1721075 17.2327561,0.777436949 16.5762507,0.527448376 C15.9468984,0.281275287 15.2285439,0.109427214 14.1781654,0.0625734279 C13.1199426,0.0117515889 12.7839964,0 10.1000477,0 C7.41609896,0 7.08015281,0.0117515889 6.02585213,0.0586053752 C4.97547358,0.105459161 4.25334775,0.277459803 3.62776684,0.523480324 C2.96341716,0.777436949 2.36876078,1.16813945 1.87442064,1.68002075 C1.37238706,2.18015047 0.982436073,2.78573935 0.735190599,3.4499336 C0.491867244,4.08680919 0.322008509,4.8134243 0.275697108,5.87610459 C0.22546359,6.94672098 0.213848039,7.28660164 0.213848039,10.001984 C0.213848039,12.7173664 0.22546359,13.0572471 0.27177499,14.1238954 C0.318086391,15.1865757 0.488095929,15.9171589 0.731419284,16.550219 C0.982436073,17.2221968 1.37238706,17.8238176 1.87442064,18.3239473 C2.36876078,18.8318605 2.96733928,19.2265311 3.62384472,19.4765197 C4.25334775,19.7226928 4.97155146,19.8945408 6.02208082,19.9413946 C7.07623069,19.988401 7.41232765,20 10.0962764,20 C12.7802251,20 13.1161713,19.988401 14.1704719,19.9413946 C15.2208505,19.8945408 15.9429763,19.7226928 16.5685572,19.4765197 C17.8971058,18.9568548 18.9474844,17.8941745 19.4611335,16.550219 C19.704306,15.9133434 19.8743156,15.1865757 19.920627,14.1238954 C19.9669384,13.0572471 19.9785539,12.7173664 19.9785539,10.001984 C19.9785539,7.28660164 19.9746318,6.94672098 19.9283204,5.88007264 Z M18.1481226,14.0457549 C18.1055825,15.0225112 17.9434172,15.5499595 17.8082543,15.9015918 C17.4760795,16.7728889 16.7925716,17.4644018 15.9313608,17.800467 C15.5837991,17.9372129 15.0586852,18.1012774 14.0970073,18.1441631 C13.0543222,18.1911695 12.7416071,18.2027685 10.1039698,18.2027685 C7.46633248,18.2027685 7.14969531,18.1911695 6.1107815,18.1441631 C5.14533232,18.1012774 4.62398976,17.9372129 4.27642805,17.800467 C3.84785909,17.6402179 3.4577573,17.3862613 3.14112013,17.0541642 C2.81286741,16.7298506 2.56185062,16.3391481 2.40345663,15.9055598 C2.26829374,15.5539276 2.10612844,15.0225112 2.06373916,14.049723 C2.01727696,12.9948262 2.00581221,12.6782962 2.00581221,10.0097676 C2.00581221,7.34123897 2.01727696,7.02089343 2.06373916,5.96996473 C2.10612844,4.99320848 2.26829374,4.4657601 2.40345663,4.11412785 C2.56185062,3.68038705 2.81286741,3.28586906 3.14504225,2.96537096 C3.46545073,2.63327383 3.85163041,2.3793172 4.28035017,2.21922072 C4.62791188,2.08247484 5.15317655,1.91841031 6.11470362,1.875372 C7.15738874,1.82851822 7.4702546,1.81676663 10.1077411,1.81676663 C12.7493006,1.81676663 13.0620156,1.82851822 14.1009294,1.875372 C15.0663786,1.91841031 15.5877212,2.08247484 15.9352829,2.21922072 C16.3638519,2.3793172 16.7539536,2.63327383 17.0705908,2.96537096 C17.3988435,3.28968454 17.6498603,3.68038705 17.8082543,4.11412785 C17.9434172,4.4657601 18.1055825,4.99702396 18.1481226,5.96996473 C18.194434,7.02486148 18.2060495,7.34123897 18.2060495,10.0097676 C18.2060495,12.6782962 18.194434,12.9908582 18.1481226,14.0457549 Z" id="Shape"></path>
                        <path d="M10.6452206,5.55555556 C7.91732831,5.55555556 5.70404412,7.79503989 5.70404412,10.5555556 C5.70404412,13.3160712 7.91732831,15.5555556 10.6452206,15.5555556 C13.3732596,15.5555556 15.5863971,13.3160712 15.5863971,10.5555556 C15.5863971,7.79503989 13.3732596,5.55555556 10.6452206,5.55555556 Z M10.6452206,13.7989313 C8.87550321,13.7989313 7.44000225,12.3464895 7.44000225,10.5555556 C7.44000225,8.76462164 8.87550321,7.31217985 10.6452206,7.31217985 C12.4150847,7.31217985 13.8504389,8.76462164 13.8504389,10.5555556 C13.8504389,12.3464895 12.4150847,13.7989313 10.6452206,13.7989313 L10.6452206,13.7989313 Z" id="Shape"></path>
                        <path d="M16.6844363,4.44444444 C16.6844363,5.05803678 16.192802,5.55555556 15.5863272,5.55555556 C14.9799922,5.55555556 14.4883578,5.05803678 14.4883578,4.44444444 C14.4883578,3.83071073 14.9799922,3.33333333 15.5863272,3.33333333 C16.192802,3.33333333 16.6844363,3.83071073 16.6844363,4.44444444 L16.6844363,4.44444444 Z" id="Path"></path>
                    </g>
                </g>
            </g>
        </g>
    </g>
</svg>