<?xml version="1.0" encoding="UTF-8"?>
<svg width="21px" height="16px" viewBox="0 0 21 16" version="1.1" xmlns="http://www.w3.org/2000/svg" xmlns:xlink="http://www.w3.org/1999/xlink">
    <title>twitter</title>
    <g id="UI---Home" stroke="none" stroke-width="1" fill="none" fill-rule="evenodd">
        <g id="UI---Home-Final" transform="translate(-1251.000000, -5121.000000)" fill="#BBC7D1" fill-rule="nonzero">
            <g id="Footer" transform="translate(0.000000, 4505.000000)">
                <g id="Group" transform="translate(1194.000000, 612.000000)">
                    <g id="twitter" transform="translate(57.000000, 4.000000)">
                        <path d="M18.8310406,3.99015385 C19.680974,3.42153846 20.3959281,2.71179487 20.9785156,1.8945641 L20.9785156,1.89374359 C20.2008615,2.2145641 19.3735698,2.42789744 18.5097031,2.53128205 C19.3979531,2.03158974 20.0763323,1.24635897 20.3950573,0.300307692 C19.5668948,0.765538462 18.6525198,1.09374359 17.6780573,1.27753846 C16.8916948,0.488205128 15.7709323,0 14.5482823,0 C12.1761323,0 10.2663948,1.81415385 10.2663948,4.03774359 C10.2663948,4.35774359 10.2951323,4.6654359 10.3656698,4.95835897 C6.80396146,4.79425641 3.65154479,3.18605128 1.53367813,0.735179487 C1.16444479,1.33989744 0.946736458,2.03158974 0.946736458,2.77579487 C0.946736458,4.17394872 1.71045729,5.41292308 2.85037813,6.13087179 C2.16154896,6.1185641 1.48665313,5.92984615 0.914515625,5.63364103 L0.914515625,5.67794872 C0.914515625,7.63979487 2.39928646,9.26933333 4.34734063,9.64512821 C3.99813646,9.73538462 3.61845313,9.77805128 3.22396563,9.77805128 C2.94965313,9.77805128 2.67272813,9.76328205 2.41321979,9.70912821 C2.96794063,11.3074872 4.54414896,12.4832821 6.41644063,12.5218462 C4.95866563,13.5958974 3.10727396,14.2432821 1.10348646,14.2432821 C0.752540625,14.2432821 0.415528125,14.2285128 0.078515625,14.1883077 C1.97693229,15.3411282 4.22542396,16 6.65156563,16 C14.2130115,16 19.1410573,10.0562051 18.8310406,3.99015385 Z" id="Path"></path>
                    </g>
                </g>
            </g>
        </g>
    </g>
</svg>