<?xml version="1.0" encoding="UTF-8"?>
<svg width="17px" height="16px" viewBox="0 0 17 16" version="1.1" xmlns="http://www.w3.org/2000/svg" xmlns:xlink="http://www.w3.org/1999/xlink">
    <title>instagram</title>
    <g id="UI---Home" stroke="none" stroke-width="1" fill="none" fill-rule="evenodd">
        <g id="UI---Home-Final" transform="translate(-1308.000000, -50.000000)" fill="#6B6B6B" fill-rule="nonzero">
            <g id="Upper-Deck" transform="translate(925.000000, 47.000000)">
                <g id="Group" transform="translate(363.000000, 1.000000)">
                    <g id="instagram" transform="translate(20.000000, 2.000000)">
                        <path d="M16.9419737,4.70405811 C16.9044835,3.85391388 16.7669788,3.26944735 16.5700027,2.76299927 C16.3667987,2.22541703 16.054177,1.74412038 15.6445938,1.3440166 C15.2444137,0.937686002 14.7598502,0.621949559 14.2283934,0.421958701 C13.7189178,0.22502023 13.1373927,0.0875417713 12.2870863,0.0500587423 C11.4304297,0.00940127112 11.1584733,0 8.9857529,0 C6.81303249,0 6.54107608,0.00940127112 5.68759459,0.0468843001 C4.83728814,0.0843673291 4.25271008,0.221967843 3.74628744,0.418784259 C3.20848056,0.621949559 2.72709206,0.93451156 2.32691195,1.3440166 C1.92050381,1.74412038 1.6048292,2.22859148 1.4046781,2.75994688 C1.20770205,3.26944735 1.07019736,3.85073944 1.03270718,4.70088367 C0.992041954,5.55737679 0.982638889,5.82928132 0.982638889,8.00158722 C0.982638889,10.1738931 0.992041954,10.4457977 1.02953214,11.2991163 C1.06702232,12.1492606 1.20464909,12.7337271 1.40162514,13.2401752 C1.6048292,13.7777574 1.92050381,14.2590541 2.32691195,14.6591578 C2.72709206,15.0654884 3.2116556,15.3812249 3.74311239,15.5812157 C4.25271008,15.7781542 4.83411309,15.9156327 5.68454162,15.9531157 C6.53790103,15.9907208 6.80997952,16 8.98269993,16 C11.1554203,16 11.4273767,15.9907208 12.2808582,15.9531157 C13.1311647,15.9156327 13.7157427,15.7781542 14.2221654,15.5812157 C15.2976571,15.1654839 16.1479635,14.3153396 16.5637747,13.2401752 C16.7606287,12.7306747 16.8982555,12.1492606 16.9357456,11.2991163 C16.9732358,10.4457977 16.9826389,10.1738931 16.9826389,8.00158722 C16.9826389,5.82928132 16.9794638,5.55737679 16.9419737,4.70405811 Z M15.5008611,11.2366039 C15.4664239,12.0180089 15.3351473,12.4399676 15.2257297,12.7212734 C14.9568262,13.4183111 14.4035104,13.9715214 13.7063397,14.2403736 C13.4249802,14.3497703 12.999888,14.4810219 12.2213869,14.5153305 C11.3773085,14.5529356 11.1241582,14.5622148 8.98892795,14.5622148 C6.85369772,14.5622148 6.59737239,14.5529356 5.75634693,14.5153305 C4.97479283,14.4810219 4.55275361,14.3497703 4.27139414,14.2403736 C3.92445736,14.1121743 3.60866067,13.909009 3.35233534,13.6433313 C3.08660695,13.3838805 2.88340288,13.0713185 2.75517918,12.7244479 C2.6457616,12.4431421 2.51448493,12.0180089 2.4801698,11.2397784 C2.44255754,10.395861 2.43327655,10.1426369 2.43327655,8.00781405 C2.43327655,5.87299117 2.44255754,5.61671474 2.4801698,4.77597178 C2.51448493,3.99456678 2.6457616,3.57260808 2.75517918,3.29130228 C2.88340288,2.94430964 3.08660695,2.62869525 3.35551039,2.37229676 C3.61488869,2.10661906 3.92751033,1.90345376 4.27456918,1.77537658 C4.55592866,1.66597988 4.98114292,1.53472825 5.75952198,1.5002976 C6.60360041,1.46281457 6.85687277,1.4534133 8.99198091,1.4534133 C11.1303862,1.4534133 11.3835365,1.46281457 12.2245619,1.5002976 C13.006116,1.53472825 13.4281552,1.66597988 13.7095147,1.77537658 C14.0564515,1.90345376 14.3722482,2.10661906 14.6285735,2.37229676 C14.8943019,2.63174764 15.097506,2.94430964 15.2257297,3.29130228 C15.3351473,3.57260808 15.4664239,3.99761917 15.5008611,4.77597178 C15.5383513,5.61988919 15.5477544,5.87299117 15.5477544,8.00781405 C15.5477544,10.1426369 15.5383513,10.3926865 15.5008611,11.2366039 Z" id="Shape"></path>
                        <path d="M8.92708333,4.44444444 C6.9948263,4.44444444 5.42708333,6.01208348 5.42708333,7.94444444 C5.42708333,9.87680541 6.9948263,11.4444444 8.92708333,11.4444444 C10.8594443,11.4444444 12.4270833,9.87680541 12.4270833,7.94444444 C12.4270833,6.01208348 10.8594443,4.44444444 8.92708333,4.44444444 Z M8.92708333,10.4444444 C7.5467426,10.4444444 6.42708333,9.32489962 6.42708333,7.94444444 C6.42708333,6.56398926 7.5467426,5.44444444 8.92708333,5.44444444 C10.3075385,5.44444444 11.4270833,6.56398926 11.4270833,7.94444444 C11.4270833,9.32489962 10.3075385,10.4444444 8.92708333,10.4444444 L8.92708333,10.4444444 Z" id="Shape"></path>
                        <path d="M14.3159722,3.55555556 C14.3159722,4.04642943 13.9179825,4.44444444 13.4270268,4.44444444 C12.9361841,4.44444444 12.5381944,4.04642943 12.5381944,3.55555556 C12.5381944,3.06456859 12.9361841,2.66666667 13.4270268,2.66666667 C13.9179825,2.66666667 14.3159722,3.06456859 14.3159722,3.55555556 L14.3159722,3.55555556 Z" id="Path"></path>
                    </g>
                </g>
            </g>
        </g>
    </g>
</svg>