<?xml version="1.0" encoding="UTF-8"?>
<svg width="20px" height="20px" viewBox="0 0 20 20" version="1.1" xmlns="http://www.w3.org/2000/svg" xmlns:xlink="http://www.w3.org/1999/xlink">
    <title>linkedin</title>
    <g id="UI---Home" stroke="none" stroke-width="1" fill="none" fill-rule="evenodd">
        <g id="UI---Home-Final" transform="translate(-1285.000000, -5117.000000)" fill="#BBC7D1" fill-rule="nonzero">
            <g id="Footer" transform="translate(0.000000, 4505.000000)">
                <g id="Group" transform="translate(1194.000000, 612.000000)">
                    <g id="linkedin" transform="translate(91.000000, 0.000000)">
                        <path d="M2.42271117,0 C1.08709883,0 0.213848039,0.960293139 0.213848039,2.22246569 C0.213848039,3.45676309 1.06108473,4.44444444 2.37146119,4.44444444 L2.39680825,4.44444444 C3.75854585,4.44444444 4.6060049,3.45676309 4.6060049,2.22246569 C4.58054667,0.960293139 3.75854585,0 2.42271117,0 Z" id="Path"></path>
                        <polygon id="Path" points="0.213848039 6.66666667 4.6060049 6.66666667 4.6060049 20 0.213848039 20"></polygon>
                        <path d="M15.0090326,6.66666667 C12.6803607,6.66666667 11.1188587,8.86172397 11.1188587,8.86172397 L11.1188587,6.97242616 L6.80208333,6.97242616 L6.80208333,20 L11.1186129,20 L11.1186129,12.7248966 C11.1186129,12.3354231 11.1467581,11.9465661 11.2608135,11.6680537 C11.572868,10.8903396 12.2830103,10.0846387 13.4755529,10.0846387 C15.0375465,10.0846387 15.6622701,11.2793199 15.6622701,13.0306561 L15.6622701,20 L19.9785539,20 L19.9785539,12.5302215 C19.9785539,8.52871736 17.8488644,6.66666667 15.0090326,6.66666667 Z" id="Path"></path>
                    </g>
                </g>
            </g>
        </g>
    </g>
</svg>