<?xml version="1.0" encoding="UTF-8"?>
<svg width="17px" height="16px" viewBox="0 0 17 16" version="1.1" xmlns="http://www.w3.org/2000/svg" xmlns:xlink="http://www.w3.org/1999/xlink">
    <title>linkedin</title>
    <g id="UI---Home" stroke="none" stroke-width="1" fill="none" fill-rule="evenodd">
        <g id="UI---Home-Final" transform="translate(-1363.000000, -48.000000)" fill="#6B6B6B" fill-rule="nonzero">
            <g id="Upper-Deck" transform="translate(925.000000, 47.000000)">
                <g id="Group" transform="translate(363.000000, 1.000000)">
                    <g id="linkedin" transform="translate(75.000000, 0.000000)">
                        <path d="M2.77076618,0 C1.6895562,0 0.982638889,0.768234511 0.982638889,1.77797255 C0.982638889,2.76541047 1.66849716,3.55555556 2.72927811,3.55555556 L2.74979716,3.55555556 C3.85215617,3.55555556 4.53819444,2.76541047 4.53819444,1.77797255 C4.5175854,0.768234511 3.85215617,0 2.77076618,0 Z" id="Path"></path>
                        <polygon id="Path" points="0.982638889 5.33333333 4.53819444 5.33333333 4.53819444 16 0.982638889 16"></polygon>
                        <path d="M12.9596931,5.33333333 C11.0745777,5.33333333 9.81050469,7.08937917 9.81050469,7.08937917 L9.81050469,5.57794093 L6.31597222,5.57794093 L6.31597222,16 L9.81030572,16 L9.81030572,10.1799173 C9.81030572,9.86833849 9.83308987,9.55725285 9.92542042,9.33444296 C10.178036,8.71227167 10.7529131,8.06771094 11.7183047,8.06771094 C12.9827757,8.06771094 13.4885044,9.02345594 13.4885044,10.4245249 L13.4885044,16 L16.9826389,16 L16.9826389,10.0241772 C16.9826389,6.82297389 15.2586045,5.33333333 12.9596931,5.33333333 Z" id="Path"></path>
                    </g>
                </g>
            </g>
        </g>
    </g>
</svg>