<?xml version="1.0" encoding="UTF-8"?>
<svg width="40px" height="20px" viewBox="0 0 40 20" version="1.1" xmlns="http://www.w3.org/2000/svg" xmlns:xlink="http://www.w3.org/1999/xlink">
    <title>menu</title>
    <g id="UI---Category-Layout" stroke="none" stroke-width="1" fill="none" fill-rule="evenodd">
        <g id="Mobile---Category" transform="translate(-267.000000, -62.000000)" fill="#FFFFFF" fill-rule="nonzero">
            <g id="menu" transform="translate(267.000000, 62.000000)">
                <path d="M1.24663212,2.5184456 L38.6465285,2.5184456 C39.334715,2.5184456 39.8931606,1.95989637 39.8931606,1.27181347 C39.8931606,0.583626943 39.3346114,0.0251813472 38.6465285,0.0251813472 L1.24663212,0.0251813472 C0.558445596,0.0251813472 0,0.58373057 0,1.27181347 C0,1.95989637 0.558549223,2.5184456 1.24663212,2.5184456 Z" id="Path"></path>
                <path d="M38.6465285,8.75181347 L1.24663212,8.75181347 C0.558445596,8.75181347 0,9.31036269 0,9.9984456 C0,10.6865285 0.558549223,11.2450777 1.24663212,11.2450777 L38.6465285,11.2450777 C39.334715,11.2450777 39.8931606,10.6865285 39.8931606,9.9984456 C39.8931606,9.31036269 39.334715,8.75181347 38.6465285,8.75181347 Z" id="Path"></path>
                <path d="M38.6465285,17.4784456 L13.7132642,17.4784456 C13.0250777,17.4784456 12.4666321,18.0369948 12.4666321,18.7250777 C12.4666321,19.4132642 13.0251813,19.9717098 13.7132642,19.9717098 L38.6465285,19.9717098 C39.334715,19.9717098 39.8931606,19.4131606 39.8931606,18.7250777 C39.8931606,18.0368912 39.334715,17.4784456 38.6465285,17.4784456 Z" id="Path"></path>
            </g>
        </g>
    </g>
</svg>