<?xml version="1.0" encoding="UTF-8"?>
<svg width="18px" height="13px" viewBox="0 0 18 13" version="1.1" xmlns="http://www.w3.org/2000/svg" xmlns:xlink="http://www.w3.org/1999/xlink">
    <title>twitter</title>
    <g id="UI---Home" stroke="none" stroke-width="1" fill="none" fill-rule="evenodd">
        <g id="UI---Home-Final" transform="translate(-1335.000000, -51.000000)" fill="#6B6B6B" fill-rule="nonzero">
            <g id="Upper-Deck" transform="translate(925.000000, 47.000000)">
                <g id="Group" transform="translate(363.000000, 1.000000)">
                    <g id="twitter" transform="translate(47.000000, 3.000000)">
                        <path d="M16.2253969,3.242 C16.9207969,2.78 17.5057594,2.20333333 17.9824219,1.53933333 L17.9824219,1.53866667 C17.3461594,1.79933333 16.6692844,1.97266667 15.9624844,2.05666667 C16.6892344,1.65066667 17.2442719,1.01266667 17.5050469,0.244 C16.8274594,0.622 16.0793344,0.888666667 15.2820469,1.038 C14.6386594,0.396666667 13.7216719,0 12.7213219,0 C10.7804719,0 9.21795937,1.474 9.21795937,3.28066667 C9.21795937,3.54066667 9.24147187,3.79066667 9.29918437,4.02866667 C6.38505937,3.89533333 3.80580937,2.58866667 2.07300937,0.597333333 C1.77090938,1.08866667 1.59278437,1.65066667 1.59278437,2.25533333 C1.59278437,3.39133333 2.21764687,4.398 3.15030937,4.98133333 C2.58672187,4.97133333 2.03453437,4.818 1.56642188,4.57733333 L1.56642188,4.61333333 C1.56642188,6.20733333 2.78123437,7.53133333 4.37509687,7.83666667 C4.08938437,7.91 3.77873437,7.94466667 3.45597187,7.94466667 C3.23153437,7.94466667 3.00495937,7.93266667 2.79263437,7.88866667 C3.24649687,9.18733333 4.53612188,10.1426667 6.06799688,10.174 C4.87527187,11.0466667 3.36049687,11.5726667 1.72103437,11.5726667 C1.43389687,11.5726667 1.15815937,11.5606667 0.882421875,11.528 C2.43567188,12.4646667 4.27534687,13 6.26037187,13 C12.4470094,13 16.4790469,8.17066667 16.2253969,3.242 Z" id="Path"></path>
                    </g>
                </g>
            </g>
        </g>
    </g>
</svg>