<svg xmlns="http://www.w3.org/2000/svg" id="Layer_1" data-name="Layer 1" viewBox="0 0 60 60"><defs><style>      .cls-1 {        fill: #8d8d8d;      }    </style></defs><path class="cls-1" d="M9.04,59.75c-2,0-3.98-.8-5.59-2.38-2.38-2.32-3.71-6.39-1.32-10.24l.16-.2,24.27-24.41c-1.31-5.22-.44-10.58,2.4-14.81,2.78-4.13,7.12-6.71,12.24-7.27,2.4-.26,5.54-.28,6.92,1.1.54.54.78,1.24.69,2.01-.13,1.16-1.56,2.59-4.79,5.6-1.4,1.3-2.97,2.76-3.59,3.59l.89,6.31c1.33.46,5.51,1.18,6.49,1.15.56-.34,2.1-2.04,3.23-3.3,3.59-3.99,5.32-5.71,6.88-5.35l.17.04.15.09c.63.36,1.43,1.14,1.68,2.81.79,5.09-.63,10.25-3.89,14.16-3.17,3.8-7.63,5.97-12.57,6.11-1.18.03-2.2-.19-3.19-.4-.8-.17-1.57-.34-2.34-.34h-.03l-24.47,24.4c-1.39.91-2.9,1.35-4.39,1.35ZM3.98,48.43c-1.64,2.76-.67,5.66,1.05,7.33,1.52,1.48,4.28,2.57,7.08.81l24.81-24.76.41-.03c1.24-.11,2.35.13,3.42.36.9.19,1.74.38,2.65.35,4.28-.12,8.15-2.01,10.9-5.3,2.84-3.42,4.08-7.93,3.39-12.38-.05-.32-.15-.71-.34-.98-1.01.54-3.33,3.12-4.63,4.56-2.06,2.29-3.27,3.6-4.19,3.94-.88.33-8.36-.68-9.2-1.97l-.13-.21-1.12-7.9.18-.33c.58-1.05,2.26-2.62,4.21-4.43,1.54-1.43,3.87-3.59,4.1-4.27,0-.04-.02-.06-.06-.1-.45-.45-2.34-.75-5.08-.45h0c-4.45.49-8.22,2.72-10.62,6.29-2.59,3.85-3.29,8.8-1.93,13.58l.18.63L3.98,48.43ZM57.58,13.74h0ZM8.92,55.28c-1.29,0-2.14-.59-2.58-1.02-1.02-.99-1.43-2.6-1.02-4.02.38-1.31,1.37-2.23,2.71-2.5h0c2.71-.56,4.43,1.05,4.89,2.77.45,1.7-.23,3.79-2.39,4.49-.6.19-1.13.27-1.61.27ZM9.07,49.89c-.18,0-.38.02-.59.06h0c-.51.1-.85.42-1,.92-.18.62,0,1.35.42,1.77.54.53,1.34.41,1.92.22,1-.33,1.04-1.27.91-1.77-.16-.62-.68-1.2-1.66-1.2Z"></path></svg>